<svg xmlns="http://www.w3.org/2000/svg" width="32" height="32" viewBox="0 0 32 32" aria-hidden="true">
  <rect width="32" height="32" rx="7" fill="#161B26"/>
  <g transform="translate(16 16) scale(0.6666666666666666) translate(-12 -12)" stroke="#5E52E8" stroke-width="2.25" fill="none" stroke-linecap="round" stroke-linejoin="round">
    <circle cx="12" cy="12" r="1" fill="#5E52E8"/><path d="M20.2 20.2c2.04-2.03.02-7.36-4.5-11.9-4.54-4.52-9.87-6.54-11.9-4.5-2.04 2.03-.02 7.36 4.5 11.9 4.54 4.52 9.87 6.54 11.9 4.5Z"/><path d="M15.7 15.7c4.52-4.54 6.54-9.87 4.5-11.9-2.03-2.04-7.36-.02-11.9 4.5-4.52 4.54-6.54 9.87-4.5 11.9 2.03 2.04 7.36.02 11.9-4.5Z"/><path d="M8.3 15.7c-4.52 4.54-6.54 9.87-4.5 11.9 2.03 2.04 7.36.02 11.9-4.5 4.52-4.54 6.54-9.87 4.5-11.9-2.03-2.04-7.36-.02-11.9 4.5Z"/>
  </g>
</svg>
